<?xml version="1.0" encoding="utf-8"?><svg viewBox="0 0 23 21" xmlns="http://www.w3.org/2000/svg" xmlns:xlink="http://www.w3.org/1999/xlink"><style>:root>svg{display:none}:root>svg:target{display:block}</style><svg fill="none" viewBox="0 0 21 19" id="camera" xmlns="http://www.w3.org/2000/svg"><g clip-path="url(#aclip0)" fill="#fff"><path d="M19.1 13.922c0 .307-.128.602-.356.82-.227.217-.535.34-.857.34H3.337c-.321 0-.63-.123-.857-.34a1.135 1.135 0 01-.355-.82v-6.96c0-.307.127-.602.355-.82.227-.217.536-.34.857-.34h1.421c.964 0 1.889-.366 2.57-1.019l1.007-.96a1.24 1.24 0 01.855-.34h2.842c.322 0 .63.122.857.34l1.004.96c.338.324.74.58 1.18.755a3.78 3.78 0 001.393.265h1.421c.322 0 .63.122.857.34.228.217.356.512.356.82v6.959zM3.337 4.642c-.643 0-1.26.245-1.715.68a2.27 2.27 0 00-.71 1.64v6.96c0 .615.256 1.205.71 1.64.455.435 1.072.68 1.715.68h14.55c.643 0 1.26-.245 1.715-.68a2.27 2.27 0 00.71-1.64v-6.96a2.27 2.27 0 00-.71-1.64 2.482 2.482 0 00-1.715-.68h-1.42c-.644 0-1.26-.244-1.715-.679l-1.004-.96a2.482 2.482 0 00-1.715-.68H9.191c-.643 0-1.26.245-1.714.68l-1.004.96a2.482 2.482 0 01-1.715.68h-1.42z"/><path d="M10.613 12.762a3.102 3.102 0 01-2.144-.85 2.837 2.837 0 01-.887-2.05c0-.769.319-1.506.887-2.05a3.103 3.103 0 012.144-.85c.804 0 1.575.306 2.143.85.569.544.888 1.281.888 2.05 0 .77-.32 1.507-.888 2.05-.568.544-1.34.85-2.143.85zm0 1.16a4.344 4.344 0 003-1.19 3.972 3.972 0 001.244-2.87c0-1.076-.447-2.109-1.243-2.87a4.344 4.344 0 00-3.001-1.19 4.343 4.343 0 00-3 1.19 3.972 3.972 0 00-1.244 2.87c0 1.077.447 2.11 1.243 2.87a4.343 4.343 0 003 1.19zM4.55 7.542a.567.567 0 01-.177.41.62.62 0 01-.429.17.62.62 0 01-.429-.17.567.567 0 01-.177-.41c0-.153.064-.3.177-.41a.62.62 0 01.43-.17.62.62 0 01.428.17.567.567 0 01.177.41z"/></g><defs><clipPath id="aclip0"><path fill="#fff" transform="translate(.912 .004)" d="M0 0h19.4v18.557H0z"/></clipPath></defs></svg><svg fill="none" viewBox="0 0 23 21" id="enlarge" xmlns="http://www.w3.org/2000/svg"><path fill="#fff" d="M0 0h2v8H0z"/><path fill="#fff" d="M0 2V0h8v2zM0 21h2v-8H0z"/><path fill="#fff" d="M0 19v2h8v-2zM23 0h-2v8h2z"/><path fill="#fff" d="M23 2V0h-8v2zM23 21h-2v-8h2z"/><path fill="#fff" d="M23 19v2h-8v-2z"/></svg></svg>