<svg width="11" height="17" viewBox="0 0 11 17" fill="none" xmlns="http://www.w3.org/2000/svg">
<path fill-rule="evenodd" clip-rule="evenodd" d="M5.5 14.9688C5.30938 14.9688 5.12656 14.893 4.99177 14.7582C4.85697 14.6234 4.78125 14.4406 4.78125 14.25L4.78125 1.3125C4.78125 1.12187 4.85697 0.939056 4.99176 0.804264C5.12656 0.669473 5.30937 0.593748 5.5 0.593748C5.69062 0.593748 5.87344 0.669473 6.00823 0.804264C6.14302 0.939055 6.21875 1.12187 6.21875 1.3125L6.21875 14.25C6.21875 14.4406 6.14302 14.6234 6.00823 14.7582C5.87344 14.893 5.69062 14.9688 5.5 14.9688Z" fill="white"/>
<path fill-rule="evenodd" clip-rule="evenodd" d="M6.00894 16.1964C5.94218 16.2633 5.86286 16.3164 5.77554 16.3526C5.68822 16.3889 5.59461 16.4075 5.50007 16.4075C5.40553 16.4075 5.31192 16.3889 5.2246 16.3526C5.13727 16.3164 5.05796 16.2633 4.99119 16.1964L0.678693 11.8839C0.543731 11.7489 0.467911 11.5659 0.467911 11.375C0.467911 11.1841 0.543731 11.0011 0.678693 10.8661C0.813655 10.7312 0.996704 10.6553 1.18757 10.6553C1.37843 10.6553 1.56148 10.7312 1.69644 10.8661L5.50007 14.6712L9.30369 10.8661C9.43865 10.7312 9.6217 10.6553 9.81257 10.6553C10.0034 10.6553 10.1865 10.7312 10.3214 10.8661C10.4564 11.0011 10.5322 11.1841 10.5322 11.375C10.5322 11.5659 10.4564 11.7489 10.3214 11.8839L6.00894 16.1964Z" fill="white"/>
</svg>
