<svg width="13" height="13" viewBox="0 0 13 13" fill="none" xmlns="http://www.w3.org/2000/svg">
<path fill-rule="evenodd" clip-rule="evenodd" d="M11.781 1.219C11.8508 1.28867 11.9062 1.37143 11.944 1.46255C11.9818 1.55367 12.0013 1.65135 12.0013 1.75C12.0013 1.84865 11.9818 1.94633 11.944 2.03745C11.9062 2.12857 11.8508 2.21133 11.781 2.281L1.28097 12.781C1.14014 12.9218 0.949134 13.0009 0.749971 13.0009C0.550807 13.0009 0.359801 12.9218 0.218971 12.781C0.0781407 12.6402 -0.000976561 12.4492 -0.000976562 12.25C-0.000976564 12.0508 0.0781407 11.8598 0.218971 11.719L10.719 1.219C10.7886 1.14915 10.8714 1.09374 10.9625 1.05593C11.0536 1.01812 11.1513 0.998657 11.25 0.998657C11.3486 0.998657 11.4463 1.01812 11.5374 1.05593C11.6285 1.09374 11.7113 1.14915 11.781 1.219Z" fill="white"/>
<path fill-rule="evenodd" clip-rule="evenodd" d="M0.219364 1.219C0.149519 1.28867 0.0941047 1.37143 0.056295 1.46255C0.0184854 1.55367 -0.000976562 1.65135 -0.000976562 1.75C-0.000976562 1.84865 0.0184854 1.94633 0.056295 2.03745C0.0941047 2.12857 0.149519 2.21133 0.219364 2.281L10.7194 12.781C10.8602 12.9218 11.0512 13.0009 11.2504 13.0009C11.4495 13.0009 11.6405 12.9218 11.7814 12.781C11.9222 12.6402 12.0013 12.4492 12.0013 12.25C12.0013 12.0508 11.9222 11.8598 11.7814 11.719L1.28136 1.219C1.2117 1.14915 1.12893 1.09374 1.03781 1.05593C0.946697 1.01812 0.849015 0.998657 0.750364 0.998657C0.651713 0.998657 0.554031 1.01812 0.462914 1.05593C0.371796 1.09374 0.289033 1.14915 0.219364 1.219Z" fill="white"/>
</svg>
